<svg height="512" viewBox="0 0 60 61" width="512" xmlns="http://www.w3.org/2000/svg"><g id="Page-1" fill="none" fill-rule="evenodd"><g id="014---Soda-and-Burger" fill="rgb(0,0,0)" fill-rule="nonzero"><circle id="Oval" cx="10" cy="32" r="1"/><circle id="Oval" cx="14" cy="29" r="1"/><circle id="Oval" cx="24" cy="28" r="1"/><circle id="Oval" cx="7" cy="37" r="1"/><circle id="Oval" cx="12" cy="36" r="1"/><circle id="Oval" cx="16" cy="33" r="1"/><path id="Shape" d="m57 11h-14v-4c0-.55228475.4477153-1 1-1h8c1.6568542 0 3-1.34314575 3-3s-1.3431458-3-3-3h-9c-3.3123376.00330738-5.9966926 2.68766243-6 6v5h-14c-1.6568542 0-3 1.3431458-3 3v1c.0042553 1.2886994.8329299 2.4299902 2.057 2.833l.373 5.224c-.474-.028-.947-.057-1.43-.057-1.4483853.0030853-2.8934362.1389877-4.317.406l-2.426-3.15c2.323-2.3 2.452-5.011 1.257-6.561s-3.858-2.114-6.665-.458l-.649-.847c-.21434231-.2933078-.57089135-.4473039-.93136819-.4022646-.36047685.0450393-.66817472.2820288-.80376043.6190579-.13558572.3370291-.07773022.7210796.15112862 1.0032067l.652.848c-2.331 2.3-2.445 5.017-1.257 6.561 1.209 1.569 3.882 2.1 6.665.458l1.874 2.433c-7.308 2.09-12.55 7.61-12.55 14.09-.00237043.440161.02301325.8800335.076 1.317.12036245 1.1259898.86449671 2.088259 1.924 2.488v2.195c-2.01176888-.0025048-3.7110655 1.4923684-3.96503286 3.4880439-.25396737 1.9956756 1.01675863 3.8685104 2.96503286 4.3699561v2.142c.00038366 1.4996922.56556057 2.9442315 1.583 4.046h-3.583c-.55228475 0-1 .4477153-1 1s.44771525 1 1 1h58c.5522847 0 1-.4477153 1-1s-.4477153-1-1-1h-5.243c.9172913-.9927431 1.4710759-2.267047 1.571-3.615l2.615-36.6c1.2235658-.4025137 2.0521952-1.5429366 2.057-2.831v-1c0-1.6568542-1.3431458-3-3-3zm-49.408 8.8c-.8-1.042-.066-2.686.908-3.738l.554.719c.21434231.2933078.57089135.4473039.93136819.4022646.36047681-.0450393.66817471-.2820288.80376041-.6190579s.0777302-.7210796-.1511286-1.0032067l-.554-.719c1.209-.643 3.024-.991 3.846.076.994 1.29-.332 3.411-1.643 4.421s-3.7 1.751-4.695.461zm31.408-13.8c0-2.209139 1.790861-4 4-4h9c.5522847 0 1 .44771525 1 1s-.4477153 1-1 1h-8c-1.6568542 0-3 1.34314575-3 3v4h-2zm16.568 17h-31.137l-.357-5h31.852zm-1.858 26h-11.852c.0900507-.3258584.1377763-.6619541.142-1 0-2.209139-1.790861-4-4-4v-2.2c1.0559805-.3950626 1.7994035-1.3512237 1.922-2.472.0539797-.4405788.0800317-.8841314.078-1.328 0-.378-.037-.749-.072-1.12 1.9724051-.4682312 3.2811863-2.3398278 3.0440862-4.353135-.2371002-2.0133073-1.9448677-3.5296554-3.9720862-3.526865-.7851419.0044341-1.5511213.2429323-2.2.685-1.7501247-2.0107447-3.9224539-3.6104558-6.362-4.685h24.988zm-15.71-3c1.1045695 0 2 .8954305 2 2s-.8954305 2-2 2h-18.586l4-4zm1 8v-2.142c.5987376-.1562324 1.1527595-.4500215 1.618-.858h12.949l-.234 3.287c-.1599952 2.0891314-1.897766 3.7050451-3.993 3.713h-11.88c.9908585-1.0966853 1.5396001-2.5219881 1.54-4zm-1.027-22.7c.3081245-.1927791.6635541-.2966046 1.027-.3.9878758-.0043813 1.8292564.7169525 1.975812 1.6939066.1465557.976954-.4461341 1.9134168-1.391812 2.1990934-.3505195-1.2728527-.8938111-2.4845515-1.611-3.593zm-22.115-5.689 2.35 3.051c.3381723.434136.9635634.5134562 1.3994099.1774912.4358464-.335965.5183391-.9609455.1845901-1.3984912l-1.721-2.234c.9706704-.1338026 1.9491593-.202955 2.929-.207 9.374 0 17 5.832 17 13 .0012234.3676316-.0201502.7349908-.064 1.1-.051542.5129013-.4845219.9025832-1 .9h-31.876c-.51926745-.0009211-.95251306-.3969076-1-.914-.04212173-.3604382-.06215914-.7231153-.06-1.086 0-5.8 4.991-10.718 11.858-12.389zm-9.858 16.389h30v2h-13c-.2651948.0000566-.5195073.1054506-.707.293l-7.245 7.244-6.3-7.2c-.18965612-.2141483-.46194247-.3368228-.748-.337h-2zm-4 6c0-1.1045695.8954305-2 2-2h3.546l3.5 4h-7.046c-1.1045695 0-2-.8954305-2-2zm7 10c-2.209139 0-4-1.790861-4-4v-2h7.8l.748.855c.3652016.4157676.8859345.662202 1.439.681h.065c.5306052-.0005056 1.0393972-.2112138 1.415-.586l.947-.95h19.586v2c0 2.209139-1.790861 4-4 4zm49-43c0 .5522847-.4477153 1-1 1h-34c-.5522847 0-1-.4477153-1-1v-1c0-.5522847.4477153-1 1-1h34c.5522847 0 1 .4477153 1 1z"/><path id="Shape" d="m49 27c-2.209139 0-4 1.790861-4 4s1.790861 4 4 4 4-1.790861 4-4-1.790861-4-4-4zm0 6c-1.1045695 0-2-.8954305-2-2s.8954305-2 2-2 2 .8954305 2 2-.8954305 2-2 2z"/><path id="Shape" d="m46 40c-1.6568542 0-3 1.3431458-3 3s1.3431458 3 3 3 3-1.3431458 3-3-1.3431458-3-3-3zm0 4c-.5522847 0-1-.4477153-1-1s.4477153-1 1-1 1 .4477153 1 1-.4477153 1-1 1z"/></g></g></svg>